<svg width="25" height="24" viewBox="0 0 25 24" fill="none" xmlns="http://www.w3.org/2000/svg">
<path fill-rule="evenodd" clip-rule="evenodd" d="M22.4999 10.1417C16.3686 11.0187 11.5187 15.8686 10.6417 21.9999H12.6659C13.5089 16.9749 17.4749 13.0089 22.4999 12.1659V10.1417Z" fill="#3B88C3"/>
<path fill-rule="evenodd" clip-rule="evenodd" d="M22.5 12.1659C17.475 13.0089 13.5089 16.975 12.6659 22H14.7C15.4954 18.0817 18.5817 14.9954 22.5 14.2V12.1659Z" fill="#3D29A3"/>
<path fill-rule="evenodd" clip-rule="evenodd" d="M22.5 2.08972C11.9458 3.04082 3.54082 11.4458 2.58972 22H4.59879C5.53692 12.5512 13.0512 5.03692 22.5 4.09879V2.08972Z" fill="#E23108"/>
<path fill-rule="evenodd" clip-rule="evenodd" d="M22.5 4.09875C13.0512 5.03689 5.53689 12.5512 4.59875 22H6.60986C7.53216 13.6568 14.1568 7.03216 22.5 6.10986V4.09875Z" fill="#E76D00"/>
<path fill-rule="evenodd" clip-rule="evenodd" d="M22.5 6.10986C14.1568 7.03216 7.53216 13.6568 6.60986 22H8.62379C9.52629 14.7626 15.2626 9.02629 22.5 8.12379V6.10986Z" fill="#FFB11A"/>
<path fill-rule="evenodd" clip-rule="evenodd" d="M22.5 8.12378C15.2626 9.02627 9.52627 14.7626 8.62378 22H10.6418C11.5188 15.8686 16.3686 11.0188 22.5 10.1418V8.12378Z" fill="#66A329"/>
</svg>
