<svg width="25" height="24" viewBox="0 0 25 24" fill="none" xmlns="http://www.w3.org/2000/svg">
<path d="M2.5 2H22.5L21.5 4H3.5L2.5 2Z" fill="#47A4EB"/>
<path d="M4.5 4H8.5L6.5 22L4.5 4Z" fill="#47A4EB"/>
<path d="M12.5 4H16.5L14.5 16L12.5 4Z" fill="#47A4EB"/>
<path d="M8.5 4H12.5L10.5 10L8.5 4Z" fill="#47A4EB"/>
<path d="M16.5 4H20.5L18.5 12L16.5 4Z" fill="#47A4EB"/>
<path d="M9.5 14C9.5 13.2 10.1667 12.3333 10.5 12C10.8333 12.3333 11.5 13.2 11.5 14C11.5 14.8 10.8333 15 10.5 15C10.1667 15 9.5 14.8 9.5 14Z" fill="#47A4EB"/>
<path d="M17.5 18C17.5 17.2 18.1667 16.3333 18.5 16C18.8333 16.3333 19.5 17.2 19.5 18C19.5 18.8 18.8333 19 18.5 19C18.1667 19 17.5 18.8 17.5 18Z" fill="#47A4EB"/>
<path d="M6.5 4H8.5L6.5 22V4Z" fill="#1D1D1D" fill-opacity="0.1"/>
<path d="M14.5 4H16.5L14.5 16V4Z" fill="#1D1D1D" fill-opacity="0.1"/>
<path d="M10.5 4H12.5L10.5 10V4Z" fill="#1D1D1D" fill-opacity="0.1"/>
<path d="M18.5 4H20.5L18.5 12V4Z" fill="#1D1D1D" fill-opacity="0.1"/>
</svg>
