<svg width="25" height="24" viewBox="0 0 25 24" fill="none" xmlns="http://www.w3.org/2000/svg">
<path fill-rule="evenodd" clip-rule="evenodd" d="M12.5002 0L15.0235 4.40613C14.2302 4.14265 13.3817 4 12.5 4C11.6184 4 10.7702 4.14259 9.97706 4.40596L12.5002 0ZM20.3736 10.5755C20.05 8.77542 19.1243 7.18439 17.8124 6.0184L23.5 6L20.3736 10.5755ZM17.7916 18C19.1146 16.8324 20.0483 15.2341 20.3736 13.4245L23.5 18H17.7916ZM12.5 20C13.4034 20 14.2718 19.8503 15.0817 19.5743L12.5002 24L9.96436 19.5898C10.7611 19.8559 11.6137 20 12.5 20ZM4.62651 13.4249C4.9518 15.2343 5.88554 16.8325 7.20835 18H1.5L4.62651 13.4249ZM7.18758 6.0184C5.87576 7.1843 4.9501 8.7752 4.62651 10.5751L1.5 6L7.18758 6.0184ZM12.5 18C15.8137 18 18.5 15.3137 18.5 12C18.5 8.68629 15.8137 6 12.5 6C9.18629 6 6.5 8.68629 6.5 12C6.5 15.3137 9.18629 18 12.5 18Z" fill="#FFAA00"/>
<path fill-rule="evenodd" clip-rule="evenodd" d="M12.5 5.99999C9.18629 5.99999 6.5 8.68628 6.5 12C6.5 15.3137 9.18629 18 12.5 18V5.99999ZM12.5 3.99999V0.000366211L9.97706 4.40595C10.7702 4.14258 11.6184 3.99999 12.5 3.99999ZM12.5 20C11.6137 20 10.7611 19.8559 9.96436 19.5898L12.5 23.9996V20ZM7.20835 18C5.88554 16.8325 4.9518 15.2343 4.62651 13.4248L1.5 18H7.20835ZM4.62651 10.5751C4.9501 8.77519 5.87576 7.1843 7.18758 6.01839L1.5 5.99999L4.62651 10.5751Z" fill="#1D1D1D" fill-opacity="0.1"/>
</svg>
