<svg width="25" height="24" viewBox="0 0 25 24" fill="none" xmlns="http://www.w3.org/2000/svg">
<path fill-rule="evenodd" clip-rule="evenodd" d="M12.5002 0L15.9502 6.02443L23.5 6L19.4002 12L23.5 18H16L12.5002 24L9.05021 18H1.5L5.60021 12L1.5 6L9.05021 6.02443L12.5002 0ZM19.5 8.01228L17 12L19.5 16L14.5 16L12.5001 20L10.5 16H5.5L8 12L5.5 8.01228H10.5L12.5001 4.02454L14.5 8.01228H19.5ZM16.0714 9.99693H14L12.5001 8L11 9.99693L9 9.99694L10.0714 11.9939L9 13.9969L11 13.9969L12.5001 16L14 14L16.0714 13.9969L15 11.9938L16.0714 9.99693Z" fill="#7DC4E8"/>
<path fill-rule="evenodd" clip-rule="evenodd" d="M12.5 23.9996L9.05021 18H1.5L5.60021 12L1.5 5.99999L9.05021 6.02442L12.5 0.000366211V4.02482L10.5 8.01227H5.5L8 12L5.5 16H10.5L12.5 19.9997V23.9996ZM12.5 8.00008V15.9999L11 13.9969L9 13.9969L10.0714 11.9938L9 9.99693L11 9.99693L12.5 8.00008Z" fill="#1D1D1D" fill-opacity="0.1"/>
</svg>
