<svg width="20" height="20" viewBox="0 0 20 20" fill="none" xmlns="http://www.w3.org/2000/svg">
<path fill-rule="evenodd" clip-rule="evenodd" d="M0.25 19C0.25 18.8424 0.298607 18.6962 0.381646 18.5755C0.774291 17.9865 1.05123 17.5703 1.24752 17.2355C1.44396 16.9004 1.52846 16.6974 1.56488 16.5402C1.59038 16.4302 1.59934 16.3841 1.60482 16.345C1.6103 16.3059 1.61436 16.2592 1.62009 16.1464C1.62723 16.0059 1.58952 15.7325 1.43869 15.1817C1.29313 14.6501 1.06774 13.9447 0.757173 12.9735C0.46937 12.0734 0.25 11.0472 0.25 10C0.25 4.61522 4.61522 0.25 10 0.25C15.3848 0.25 19.75 4.61522 19.75 10C19.75 15.3848 15.3848 19.75 10 19.75H1C0.585788 19.75 0.25 19.4142 0.25 19ZM10 15C10.5523 15 11 14.5523 11 14C11 13.4477 10.5523 13 10 13C9.44771 13 9 13.4477 9 14C9 14.5523 9.44771 15 10 15ZM10 6.75C9.30964 6.75 8.75 7.30964 8.75 8V8.5C8.75 8.91421 8.41421 9.25 8 9.25C7.58579 9.25 7.25 8.91421 7.25 8.5V8C7.25 6.48122 8.48122 5.25 10 5.25C11.5188 5.25 12.75 6.48122 12.75 8V8.12132C12.75 8.88284 12.4475 9.61317 11.909 10.1517L10.5303 11.5303C10.2374 11.8232 9.76256 11.8232 9.46967 11.5303C9.17678 11.2374 9.17678 10.7626 9.46967 10.4697L10.8483 9.09099C11.1055 8.83382 11.25 8.48502 11.25 8.12132V8C11.25 7.30964 10.6904 6.75 10 6.75Z" fill="#1D1D1D"/>
</svg>
