<svg width="24" height="24" viewBox="0 0 24 24" fill="none" xmlns="http://www.w3.org/2000/svg">
<path fill-rule="evenodd" clip-rule="evenodd" d="M7.60149 17.962C4.92381 15.1572 5.67304 9.97194 9.33187 6.31703C13.0156 2.63721 18.2747 1.91094 21.0617 4.6829C21.1643 4.78535 21.2621 4.89114 21.3551 5.00008L22.2615 5.90549C25.0485 8.67746 24.3578 13.9914 20.6741 17.6712C18.4929 19.85 15.7665 21 13.3187 21C11.6343 21 10.0833 20.4553 8.94423 19.3174L7.62341 17.9859C7.61565 17.9782 7.60835 17.9702 7.60149 17.962ZM9.78022 6.78911C11.8402 4.73132 14.4092 3.6419 16.6752 3.6419C18.202 3.6419 19.5713 4.13819 20.5891 5.15498C23.1217 7.67275 22.3825 12.5267 18.9533 15.9523C15.524 19.3779 10.6769 20.1042 8.14434 17.5865C5.62388 15.0566 6.35094 10.2147 9.78022 6.78911ZM12.2282 17.9495C10.968 17.9495 9.84105 17.5501 9.00494 16.727C7.96282 15.686 7.56294 14.1487 7.86588 12.3935C8.16882 10.6747 9.114 8.9558 10.5318 7.53955C11.9495 6.12331 13.6702 5.17915 15.3909 4.87653C17.1359 4.56181 18.6869 4.97337 19.729 6.01437C20.7711 7.05537 21.171 8.59266 20.8681 10.3478C20.5651 12.0667 19.62 13.7856 18.2022 15.2018C16.4088 16.9933 14.1792 17.9495 12.2282 17.9495ZM16.5179 5.42124C16.1907 5.42124 15.8635 5.44545 15.5121 5.51808C13.9247 5.79648 12.3252 6.68012 11.0043 7.99953C9.68353 9.31894 8.79894 10.9289 8.52023 12.5025C8.25365 14.0397 8.59294 15.3834 9.47753 16.267C11.3315 18.119 15.0516 17.4412 17.7539 14.7418C19.0747 13.4224 19.9593 11.8125 20.238 10.2389C20.5046 8.7016 20.1653 7.35798 19.2807 6.47434C18.59 5.78438 17.6327 5.42124 16.5179 5.42124Z" fill="#1D1D1D"/>
</svg>
