<svg width="48" height="48" viewBox="0 0 48 48" fill="none" xmlns="http://www.w3.org/2000/svg">
<path fill-rule="evenodd" clip-rule="evenodd" d="M22.5017 15C18.3596 15 15.0017 18.3579 15.0017 22.5C15.0017 26.6421 18.3596 30 22.5017 30C26.6438 30 30.0017 26.6421 30.0017 22.5C30.0017 20.5109 29.2115 18.6032 27.805 17.1967C26.3985 15.7902 24.4908 15 22.5017 15ZM13.5017 22.5C13.5017 17.5294 17.5311 13.5 22.5017 13.5C24.8887 13.5 27.1778 14.4482 28.8657 16.136C30.5535 17.8239 31.5017 20.1131 31.5017 22.5C31.5017 27.4706 27.4723 31.5 22.5017 31.5C17.5311 31.5 13.5017 27.4706 13.5017 22.5ZM33.5681 31.7165L31.0134 29.6543C30.6269 29.2704 30.0073 29.2704 29.6208 29.6543C29.4204 29.8562 29.3077 30.1304 29.3077 30.4164C29.3077 30.7024 29.4204 30.9767 29.6208 31.1785L31.7408 33.6083C32.2576 34.1307 33.0956 34.1307 33.6124 33.6083C34.1293 33.0859 34.1293 32.2389 33.6124 31.7165H33.5681ZM16.5001 22.5C16.5001 19.1863 19.1864 16.5 22.5001 16.5C24.0914 16.5 25.6175 17.1321 26.7427 18.2574C27.8679 19.3826 28.5001 20.9087 28.5001 22.5C28.5001 25.8137 25.8138 28.5 22.5001 28.5C19.1864 28.5 16.5001 25.8137 16.5001 22.5Z" fill="#1D1D1D"/>
</svg>
