<svg width="22" height="24" viewBox="0 0 22 24" fill="none" xmlns="http://www.w3.org/2000/svg">
<g filter="url(#filter0_d_804_62471)">
<path d="M12.8608 5.53033C13.3367 5.42649 13.6651 5.99517 13.3372 6.3554L11.352 8.53633C11.243 8.6561 11.1988 8.82125 11.2333 8.97948L11.862 11.8608C11.9658 12.3367 11.3972 12.665 11.0369 12.3371L8.85601 10.352C8.73624 10.243 8.57108 10.1987 8.41285 10.2333L5.53156 10.862C5.05564 10.9658 4.72731 10.3971 5.0552 10.0369L7.04032 7.85598C7.14934 7.73621 7.19359 7.57105 7.15906 7.41282L6.53036 4.53153C6.42652 4.05561 6.9952 3.72728 7.35543 4.05517L9.53636 6.04029C9.65613 6.14931 9.82128 6.19356 9.97951 6.15903L12.8608 5.53033Z" fill="#FFCF08"/>
<path d="M16.5932 10.9936C17.0691 10.8897 17.3975 11.4584 17.0696 11.8187L16.1558 12.8226C16.0468 12.9423 16.0026 13.1075 16.0371 13.2657L16.3265 14.592C16.4303 15.0679 15.8616 15.3962 15.5014 15.0683L14.4975 14.1546C14.3777 14.0456 14.2126 14.0013 14.0544 14.0358L12.7281 14.3252C12.2522 14.4291 11.9238 13.8604 12.2517 13.5002L13.1655 12.4963C13.2745 12.3765 13.3188 12.2113 13.2842 12.0531L12.9948 10.7268C12.891 10.2509 13.4597 9.92259 13.8199 10.2505L14.8238 11.1642C14.9436 11.2733 15.1087 11.3175 15.267 11.283L16.5932 10.9936Z" fill="#FFCF08"/>
</g>
<defs>
<filter id="filter0_d_804_62471" x="-3" y="0" width="27" height="27" filterUnits="userSpaceOnUse" color-interpolation-filters="sRGB">
<feFlood flood-opacity="0" result="BackgroundImageFix"/>
<feColorMatrix in="SourceAlpha" type="matrix" values="0 0 0 0 0 0 0 0 0 0 0 0 0 0 0 0 0 0 127 0" result="hardAlpha"/>
<feOffset dy="4"/>
<feGaussianBlur stdDeviation="2"/>
<feComposite in2="hardAlpha" operator="out"/>
<feColorMatrix type="matrix" values="0 0 0 0 0 0 0 0 0 0 0 0 0 0 0 0 0 0 0.25 0"/>
<feBlend mode="normal" in2="BackgroundImageFix" result="effect1_dropShadow_804_62471"/>
<feBlend mode="normal" in="SourceGraphic" in2="effect1_dropShadow_804_62471" result="shape"/>
</filter>
</defs>
</svg>
